<svg id="visual" viewBox="0 0 900 450" width="900" height="450" xmlns="http://www.w3.org/2000/svg" xmlns:xlink="http://www.w3.org/1999/xlink" version="1.1"><rect x="0" y="0" width="900" height="450" fill="#b2cedb"></rect><path d="M249 0L265.5 18.8C282 37.7 315 75.3 361 112.8C407 150.3 466 187.7 470.3 225.2C474.7 262.7 424.3 300.3 423.5 337.8C422.7 375.3 471.3 412.7 495.7 431.3L520 450L0 450L0 431.3C0 412.7 0 375.3 0 337.8C0 300.3 0 262.7 0 225.2C0 187.7 0 150.3 0 112.8C0 75.3 0 37.7 0 18.8L0 0Z" fill="#eee" stroke-linecap="round" stroke-linejoin="miter"></path></svg>